<?xml version="1.0" encoding="UTF-8" standalone="no"?>
<svg
   xmlns:dc="http://purl.org/dc/elements/1.1/"
   xmlns:cc="http://creativecommons.org/ns#"
   xmlns:rdf="http://www.w3.org/1999/02/22-rdf-syntax-ns#"
   xmlns:svg="http://www.w3.org/2000/svg"
   xmlns="http://www.w3.org/2000/svg"
   xmlns:sodipodi="http://sodipodi.sourceforge.net/DTD/sodipodi-0.dtd"
   xmlns:inkscape="http://www.inkscape.org/namespaces/inkscape"
   version="1.1"
   id="svg2"
   xml:space="preserve"
   width="426.56"
   height="348"
   viewBox="0 0 426.56 348"
   sodipodi:docname="education.eps"><metadata
     id="metadata8"><rdf:RDF><cc:Work
         rdf:about=""><dc:format>image/svg+xml</dc:format><dc:type
           rdf:resource="http://purl.org/dc/dcmitype/StillImage" /></cc:Work></rdf:RDF></metadata><defs
     id="defs6" /><sodipodi:namedview
     pagecolor="#ffffff"
     bordercolor="#666666"
     borderopacity="1"
     objecttolerance="10"
     gridtolerance="10"
     guidetolerance="10"
     inkscape:pageopacity="0"
     inkscape:pageshadow="2"
     inkscape:window-width="640"
     inkscape:window-height="480"
     id="namedview4" /><g
     id="g10"
     inkscape:groupmode="layer"
     inkscape:label="ink_ext_XXXXXX"
     transform="matrix(1.3333333,0,0,-1.3333333,0,348)"><g
       id="g12"
       transform="scale(0.1)"><path
         d="m 1800.74,690.512 c -56.79,-34.84 -129.57,-54.063 -204.84,-54.063 -75.31,0 -148.09,19.223 -204.88,54.063 L 463.551,1259.3 c 0,0 -83.711,51.33 -83.711,-64.92 V 626.371 c 0,-299.223 544.461,-621.76162 1216.02,-621.76162 671.56,0 1216.02,322.53862 1216.02,621.76162 v 600.039 c 0,93.32 -59.54,47.69 -59.54,47.69 l -951.6,-583.588"
         style="fill:#41abc8;fill-opacity:1;fill-rule:nonzero;stroke:none"
         id="path14" /><path
         d="m 3138.32,1711.76 c 71.25,43.71 71.25,115.23 0,158.95 l -1412.89,706.52 c -71.25,43.71 -187.85,43.71 -259.14,0 L 53.4414,1870.71 c -71.25,-43.72 -71.25,-115.24 0,-158.95 L 1466.29,845.238 c 71.29,-43.707 187.89,-43.707 259.14,0"
         style="fill:#41abc8;fill-opacity:1;fill-rule:nonzero;stroke:none"
         id="path16" /><path
         d="m 3079.88,427.379 v 957.001 c 0,0 0.67,45.35 -26.25,30.35 -21.56,-11.99 -74.45,-41.49 -93.08,-57.7 -21.53,-18.67 -16.64,-60.66 -16.64,-60.66 V 427.379 c 0,-12.34 -10.63,-18.238 -15.67,-21.207 -48.86,-28.711 -81.68,-81.711 -81.68,-142.461 0,-91.332 74.03,-165.3516 165.32,-165.3516 91.32,0 165.35,74.0196 165.35,165.3516 0,60.98 -33.09,114.141 -82.23,142.82 -4.92,2.848 -15.12,8.508 -15.12,20.848 v 0"
         style="fill:#41abc8;fill-opacity:1;fill-rule:nonzero;stroke:none"
         id="path18" /></g></g></svg>
