<?xml version="1.0" encoding="UTF-8" standalone="no"?>
<svg
   xmlns:dc="http://purl.org/dc/elements/1.1/"
   xmlns:cc="http://creativecommons.org/ns#"
   xmlns:rdf="http://www.w3.org/1999/02/22-rdf-syntax-ns#"
   xmlns:svg="http://www.w3.org/2000/svg"
   xmlns="http://www.w3.org/2000/svg"
   xmlns:sodipodi="http://sodipodi.sourceforge.net/DTD/sodipodi-0.dtd"
   xmlns:inkscape="http://www.inkscape.org/namespaces/inkscape"
   version="1.1"
   id="svg2"
   xml:space="preserve"
   width="306.12"
   height="386.13333"
   viewBox="0 0 306.12 386.13333"
   sodipodi:docname="experience.eps"><metadata
     id="metadata8"><rdf:RDF><cc:Work
         rdf:about=""><dc:format>image/svg+xml</dc:format><dc:type
           rdf:resource="http://purl.org/dc/dcmitype/StillImage" /></cc:Work></rdf:RDF></metadata><defs
     id="defs6" /><sodipodi:namedview
     pagecolor="#ffffff"
     bordercolor="#666666"
     borderopacity="1"
     objecttolerance="10"
     gridtolerance="10"
     guidetolerance="10"
     inkscape:pageopacity="0"
     inkscape:pageshadow="2"
     inkscape:window-width="640"
     inkscape:window-height="480"
     id="namedview4" /><g
     id="g10"
     inkscape:groupmode="layer"
     inkscape:label="ink_ext_XXXXXX"
     transform="matrix(1.3333333,0,0,-1.3333333,0,386.13333)"><g
       id="g12"
       transform="scale(0.1)"><path
         d="m 2215.9,2526.72 h -402.81 c -14.22,0 -16.21,-15.58 -16.21,-15.58 l -18.05,-127.03 c 0,0 -4.49,-17.39 14.69,-17.39 h 262.38 c 43.98,0 80,-36.01 80,-80 V 240 c 0,-43.98 -36.02,-80 -80,-80 L 240,160 c -44.02,0 -80,36.02 -80,80 v 2046.72 c 0,43.99 35.98,80 80,80 h 266.988 c 13.633,0 10.473,14.61 10.473,14.61 l -18.551,130.78 c 0,0 -2.859,14.61 -14.851,14.61 H 80 c -43.9805,0 -80,-36.01 -80,-80 V 80 C 0,36.0195 36.0195,0 80,0 h 2135.9 c 43.98,0 80,36.0195 80,80 v 2366.72 c 0,43.99 -36.02,80 -80,80 v 0"
         style="fill:#41abc8;fill-opacity:1;fill-rule:nonzero;stroke:none"
         id="path14" /><path
         d="m 1147.93,2588.01 c -45.27,0 -81.99,36.72 -81.99,81.99 0,45.32 36.72,82.04 81.99,82.04 45.31,0 82.03,-36.72 82.03,-82.04 0,-45.27 -36.72,-81.99 -82.03,-81.99 z m 444.65,68.05 h -165.12 c -10,0 -11.44,14.45 -12.89,21.52 -24.88,124.57 -134.77,218.44 -266.64,218.44 -130.66,0 -239.731,-92.15 -265.942,-215 -1.758,-8.2 -1.207,-24.96 -13.867,-24.96 h -164.84 c -26.371,0 -44.961,-21.41 -41.25,-47.54 l 42.578,-299.65 c 3.711,-26.13 28.321,-47.5 54.731,-47.5 h 777.18 c 26.41,0 51.06,21.37 54.77,47.5 l 42.54,299.65 c 3.71,26.13 -14.85,47.54 -41.25,47.54 v 0"
         style="fill:#41abc8;fill-opacity:1;fill-rule:nonzero;stroke:none"
         id="path16" /><path
         d="m 1330.51,1810.16 c 0,-17.42 -14.26,-31.72 -31.72,-31.72 H 429.691 c -17.461,0 -31.722,14.3 -31.722,31.72 v 65.24 c 0,17.42 14.261,31.71 31.722,31.71 h 869.099 c 17.46,0 31.72,-14.29 31.72,-31.71 v -65.24"
         style="fill:#41abc8;fill-opacity:1;fill-rule:nonzero;stroke:none"
         id="path18" /><path
         d="m 1751.29,1708.83 c -13.59,-13.59 -35.86,-13.59 -49.49,0 l -124.65,124.69 c -13.6,13.59 -13.6,35.86 0,49.45 l 31.95,31.96 c 13.6,13.63 35.86,13.63 49.49,0 l 43.25,-43.25 c 13.59,-13.59 35.86,-13.59 49.45,0 l 105.08,105.04 c 13.59,13.6 35.86,13.64 49.45,0 l 31.95,-31.95 c 13.6,-13.59 13.6,-35.86 0,-49.45 l -186.48,-186.49"
         style="fill:#41abc8;fill-opacity:1;fill-rule:nonzero;stroke:none"
         id="path20" /><path
         d="m 1330.51,1362.43 c 0,-17.46 -14.26,-31.72 -31.72,-31.72 H 429.691 c -17.461,0 -31.722,14.26 -31.722,31.72 v 65.19 c 0,17.46 14.261,31.76 31.722,31.76 h 869.099 c 17.46,0 31.72,-14.3 31.72,-31.76 v -65.19"
         style="fill:#41abc8;fill-opacity:1;fill-rule:nonzero;stroke:none"
         id="path22" /><path
         d="m 1751.29,1261.1 c -13.59,-13.6 -35.86,-13.6 -49.49,0 l -124.65,124.69 c -13.6,13.59 -13.6,35.86 0,49.45 l 31.95,31.95 c 13.6,13.6 35.86,13.6 49.49,0 l 43.25,-43.24 c 13.59,-13.59 35.86,-13.59 49.45,0 l 105.08,105.04 c 13.59,13.59 35.86,13.59 49.45,0 l 31.95,-31.95 c 13.6,-13.6 13.6,-35.86 0,-49.5 L 1751.29,1261.1"
         style="fill:#41abc8;fill-opacity:1;fill-rule:nonzero;stroke:none"
         id="path24" /><path
         d="m 1065.94,914.691 c 0,-17.461 -14.26,-31.761 -31.72,-31.761 H 429.691 c -17.461,0 -31.722,14.3 -31.722,31.761 v 65.2 c 0,17.461 14.261,31.719 31.722,31.719 h 604.529 c 17.46,0 31.72,-14.258 31.72,-31.719 v -65.2"
         style="fill:#41abc8;fill-opacity:1;fill-rule:nonzero;stroke:none"
         id="path26" /><path
         d="m 1751.29,813.32 c -13.59,-13.59 -35.86,-13.59 -49.49,0 l -124.65,124.692 c -13.6,13.636 -13.6,35.898 0,49.488 l 31.95,31.96 c 13.6,13.59 35.86,13.59 49.49,-0.04 l 43.25,-43.24 c 13.59,-13.598 35.86,-13.598 49.45,0 l 105.08,105.07 c 13.59,13.6 35.86,13.6 49.45,0 l 31.95,-31.95 c 13.6,-13.63 13.6,-35.9 0,-49.491 L 1751.29,813.32"
         style="fill:#41abc8;fill-opacity:1;fill-rule:nonzero;stroke:none"
         id="path28" /></g></g></svg>
