<?xml version="1.0" encoding="UTF-8" standalone="no"?>
<svg
   xmlns:dc="http://purl.org/dc/elements/1.1/"
   xmlns:cc="http://creativecommons.org/ns#"
   xmlns:rdf="http://www.w3.org/1999/02/22-rdf-syntax-ns#"
   xmlns:svg="http://www.w3.org/2000/svg"
   xmlns="http://www.w3.org/2000/svg"
   xmlns:sodipodi="http://sodipodi.sourceforge.net/DTD/sodipodi-0.dtd"
   xmlns:inkscape="http://www.inkscape.org/namespaces/inkscape"
   version="1.1"
   id="svg2"
   xml:space="preserve"
   width="32.746666"
   height="31.933332"
   viewBox="0 0 32.746666 31.933332"
   sodipodi:docname="github.eps"><metadata
     id="metadata8"><rdf:RDF><cc:Work
         rdf:about=""><dc:format>image/svg+xml</dc:format><dc:type
           rdf:resource="http://purl.org/dc/dcmitype/StillImage" /></cc:Work></rdf:RDF></metadata><defs
     id="defs6" /><sodipodi:namedview
     pagecolor="#ffffff"
     bordercolor="#666666"
     borderopacity="1"
     objecttolerance="10"
     gridtolerance="10"
     guidetolerance="10"
     inkscape:pageopacity="0"
     inkscape:pageshadow="2"
     inkscape:window-width="640"
     inkscape:window-height="480"
     id="namedview4" /><g
     id="g10"
     inkscape:groupmode="layer"
     inkscape:label="ink_ext_XXXXXX"
     transform="matrix(1.3333333,0,0,-1.3333333,0,31.933333)"><g
       id="g12"
       transform="scale(0.1)"><path
         d="M 122.801,239.547 C 54.9883,239.547 0,184.566 0,116.734 0,62.4844 35.1914,16.457 83.9883,0.214844 90.1289,-0.914063 92.3711,2.875 92.3711,6.13672 92.3711,9.04688 92.2695,16.7656 92.2109,27.0156 58.0508,19.5977 50.8398,43.4766 50.8398,43.4766 45.25,57.6641 37.1992,61.4453 37.1992,61.4453 c -11.1484,7.6211 0.8516,7.461 0.8516,7.461 C 50.3711,68.0352 56.8594,56.2578 56.8594,56.2578 67.8086,37.4844 85.6016,42.9063 92.6016,46.0469 c 1.1093,7.9375 4.289,13.3476 7.7894,16.4179 -27.2699,3.1016 -55.9301,13.6407 -55.9301,60.6992 0,13.402 4.7774,24.363 12.6407,32.953 -1.2735,3.11 -5.4805,15.59 1.1992,32.5 0,0 10.3086,3.297 33.7695,-12.59 9.8007,2.719 20.3007,4.09 30.7497,4.129 10.418,-0.039 20.93,-1.41 30.739,-4.129 23.441,15.887 33.742,12.59 33.742,12.59 6.699,-16.91 2.48,-29.39 1.219,-32.5 7.871,-8.59 12.621,-19.551 12.621,-32.953 0,-47.1796 -28.711,-57.5585 -56.071,-60.5976 4.41,-3.7891 8.34,-11.2891 8.34,-22.7422 0,-16.4179 -0.148,-29.6679 -0.148,-33.68748 0,-3.28906 2.207,-7.109376 8.437,-5.910157 48.762,16.269537 83.91,62.269537 83.91,116.507437 0,67.832 -54.988,122.813 -122.808,122.813"
         style="fill:#b6206f;fill-opacity:1;fill-rule:nonzero;stroke:none"
         id="path14" /></g></g></svg>
