<?xml version="1.0" encoding="utf-8"?>
<!-- Generator: Adobe Illustrator 26.5.0, SVG Export Plug-In . SVG Version: 6.00 Build 0)  -->
<svg version="1.1" xmlns="http://www.w3.org/2000/svg" xmlns:xlink="http://www.w3.org/1999/xlink" x="0px" y="0px"
	 viewBox="0 0 99.5 111.7" style="enable-background:new 0 0 99.5 111.7;" xml:space="preserve">
<style type="text/css">
	.st0{display:none;}
	.st1{display:inline;fill:none;stroke:#D6D6D6;stroke-width:18;stroke-miterlimit:10;}
	.st2{display:inline;}
	.st3{fill:#FFFFFF;}
	
		.st4{clip-path:url(#SVGID_00000111159024723803074480000016838197825849827505_);fill:#FFFFFF;stroke:#D6D6D6;stroke-width:18;stroke-miterlimit:10;}
	
		.st5{clip-path:url(#SVGID_00000111159024723803074480000016838197825849827505_);fill:none;stroke:#D6D6D6;stroke-width:5;stroke-miterlimit:10;}
	
		.st6{opacity:0.5;clip-path:url(#SVGID_00000111159024723803074480000016838197825849827505_);fill:url(#XMLID_00000032649965826271906650000008043879581074151047_);}
	.st7{clip-path:url(#SVGID_00000111159024723803074480000016838197825849827505_);fill:none;stroke:#D6D6D6;stroke-miterlimit:10;}
	
		.st8{opacity:0.5;clip-path:url(#SVGID_00000111159024723803074480000016838197825849827505_);fill:url(#XMLID_00000122690315124737512720000015603518976980267661_);}
	
		.st9{clip-path:url(#SVGID_00000111159024723803074480000016838197825849827505_);fill:none;stroke:#D6D6D6;stroke-width:10;stroke-miterlimit:10;}
	
		.st10{clip-path:url(#SVGID_00000082369121057887550260000001740040062751685542_);fill:#FFFFFF;stroke:#02A8C5;stroke-width:18;stroke-miterlimit:10;}
	
		.st11{clip-path:url(#SVGID_00000082369121057887550260000001740040062751685542_);fill:none;stroke:#02A8C5;stroke-width:18;stroke-miterlimit:10;}
	
		.st12{clip-path:url(#SVGID_00000082369121057887550260000001740040062751685542_);fill:none;stroke:#02A8C5;stroke-width:5;stroke-miterlimit:10;}
	
		.st13{opacity:0.5;clip-path:url(#SVGID_00000082369121057887550260000001740040062751685542_);fill:url(#XMLID_00000170248277637512392480000015988360078512910498_);}
	.st14{clip-path:url(#SVGID_00000082369121057887550260000001740040062751685542_);fill:none;stroke:#02A8C5;stroke-miterlimit:10;}
	
		.st15{opacity:0.5;clip-path:url(#SVGID_00000082369121057887550260000001740040062751685542_);fill:url(#XMLID_00000119089877487972113080000006744115011436970126_);}
	
		.st16{clip-path:url(#SVGID_00000082369121057887550260000001740040062751685542_);fill:none;stroke:#02A8C5;stroke-width:10;stroke-miterlimit:10;}
</style>
<g id="Layer_1" class="st0">
</g>
<g id="Layer_3" class="st0">
	<path id="XMLID_9_" class="st1" d="M41.9,10.4c4.8-2.8,10.8-2.8,15.7,0l27.8,16c4.9,2.8,7.9,8,7.9,13.6v31.8c0,5.6-3,10.8-7.9,13.6
		"/>
</g>
<g id="Layer_2" class="st0">
</g>
<g id="Layer_5" class="st0">
</g>
<g id="Layer_4" class="st0">
	<g id="XMLID_2_" class="st2">
		<path class="st3" d="M18.4,34.2l28.3-16.3c1.9-1.1,4.2-1.1,6.1,0l28.3,16.3c1.9,1.1,3.1,3.1,3.1,5.4v32.5c0,2.2-1.2,4.3-3.1,5.4
			L52.8,93.7c-1.9,1.1-4.2,1.1-6.1,0L18.4,77.5c-1.9-1.1-3.1-3.1-3.1-5.4V39.6C15.3,37.4,16.5,35.3,18.4,34.2z"/>
	</g>
	<g id="XMLID_4_" class="st2">
		<path class="st3" d="M49.7,119.7c-4,0-8.1-1.1-11.7-3.2L3.7,96.4C-3.5,92.2-8,84.3-8,75.8v-40c0-8.5,4.5-16.4,11.7-20.6l0,0
			L38.1-4.8c7.2-4.2,16.2-4.2,23.4,0l34.3,20.1c7.2,4.2,11.7,12.1,11.7,20.6v40c0,8.5-4.5,16.4-11.7,20.6l-34.3,20.1
			C57.8,118.6,53.8,119.7,49.7,119.7z M7.8,22.2C3,25,0,30.2,0,35.8v40c0,5.6,3,10.9,7.8,13.7l34.3,20.1c4.7,2.8,10.6,2.8,15.3,0
			l34.3-20.1c4.8-2.8,7.8-8,7.8-13.7v-40c0-5.6-3-10.9-7.8-13.7L57.4,2.1c-4.7-2.8-10.6-2.8-15.3,0L7.8,22.2L7.8,22.2z"/>
	</g>
</g>
<g id="Layer_7">
</g>
<g id="Layer_6" class="st0">
	<g class="st2">
		<defs>
			<path id="SVGID_1_" d="M91.7,22.2L57.4,2.1c-4.7-2.8-10.6-2.8-15.3,0L7.8,22.2C3,25,0,30.2,0,35.8v40c0,5.6,3,10.9,7.8,13.7
				l34.3,20.1c4.7,2.8,10.6,2.8,15.3,0l34.3-20.1c4.8-2.8,7.8-8,7.8-13.7v-40C99.5,30.2,96.5,25,91.7,22.2z M84.2,71.9
				c0,2.4-1.3,4.6-3.4,5.8L53,93.7c-2.1,1.2-4.6,1.2-6.7,0l-27.8-16c-2.1-1.2-3.4-3.4-3.4-5.8V40.1c0-2.4,1.3-4.6,3.4-5.8l27.8-16
				c2.1-1.2,4.6-1.2,6.7,0l27.8,16c2.1,1.2,3.4,3.4,3.4,5.8V71.9z"/>
		</defs>
		<clipPath id="SVGID_00000003065520584707666410000004632067928758553500_">
			<use xlink:href="#SVGID_1_"  style="overflow:visible;"/>
		</clipPath>
		
			<path id="XMLID_1_" style="clip-path:url(#SVGID_00000003065520584707666410000004632067928758553500_);fill:#FFFFFF;stroke:#D6D6D6;stroke-width:18;stroke-miterlimit:10;" d="
			M14.1,26.4l27.8-16c4.8-2.8,10.8-2.8,15.7,0l27.8,16c4.9,2.8,7.9,8,7.9,13.6v31.8c0,5.6-3,10.8-7.9,13.6l-27.8,16
			c-4.8,2.8-10.8,2.8-15.7,0l-27.8-16c-4.9-2.8-7.9-8-7.9-13.6V40.1C6.2,34.4,9.2,29.2,14.1,26.4z"/>
		
			<line id="XMLID_25_" style="clip-path:url(#SVGID_00000003065520584707666410000004632067928758553500_);fill:none;stroke:#D6D6D6;stroke-width:5;stroke-miterlimit:10;" x1="81.6" y1="88.6" x2="81.6" y2="70.4"/>
		
			<line id="XMLID_7_" style="clip-path:url(#SVGID_00000003065520584707666410000004632067928758553500_);fill:none;stroke:#D6D6D6;stroke-width:5;stroke-miterlimit:10;" x1="54.7" y1="21.9" x2="41.2" y2="14.5"/>
		
			<linearGradient id="XMLID_00000159430518489136643360000005084864266190819770_" gradientUnits="userSpaceOnUse" x1="74.3356" y1="8.5708" x2="74.3356" y2="-15.497" gradientTransform="matrix(0.6288 0.9747 -1.2208 0.7875 22.1065 18.9174)">
			<stop  offset="0.2092" style="stop-color:#656565;stop-opacity:0"/>
			<stop  offset="1" style="stop-color:#000000"/>
		</linearGradient>
		
			<polygon id="XMLID_28_" style="opacity:0.5;clip-path:url(#SVGID_00000003065520584707666410000004632067928758553500_);fill:url(#XMLID_00000159430518489136643360000005084864266190819770_);" points="
			79.9,66.9 95.7,91.4 66.3,110.3 50.5,85.9 		"/>
		
			<path id="XMLID_8_" style="clip-path:url(#SVGID_00000003065520584707666410000004632067928758553500_);fill:none;stroke:#D6D6D6;stroke-miterlimit:10;" d="
			M84.4,37.9l0.2,46.8c0,6-6.2,15.7-6.1,15.7"/>
		
			<linearGradient id="XMLID_00000099642782248826353110000016048505083656665739_" gradientUnits="userSpaceOnUse" x1="39.6231" y1="25.8646" x2="39.6231" y2="1.7967" gradientTransform="matrix(0.6921 1.211 -1.4712 0.8408 25.7908 -33.0676)">
			<stop  offset="0.2092" style="stop-color:#656565;stop-opacity:0"/>
			<stop  offset="1" style="stop-color:#000000"/>
		</linearGradient>
		
			<polygon id="XMLID_26_" style="opacity:0.5;clip-path:url(#SVGID_00000003065520584707666410000004632067928758553500_);fill:url(#XMLID_00000099642782248826353110000016048505083656665739_);" points="
			41.9,1.2 59.3,31.6 23.8,51.9 6.5,21.5 		"/>
		
			<path id="XMLID_3_" style="clip-path:url(#SVGID_00000003065520584707666410000004632067928758553500_);fill:none;stroke:#D6D6D6;stroke-miterlimit:10;" d="
			M77,31.3L40.7,10.7c-4.7-2.7-15-2.1-14.9-2.1"/>
		
			<line id="XMLID_24_" style="clip-path:url(#SVGID_00000003065520584707666410000004632067928758553500_);fill:none;stroke:#D6D6D6;stroke-width:5;stroke-miterlimit:10;" x1="87.2" y1="77.7" x2="87.4" y2="98.1"/>
		
			<line id="XMLID_23_" style="clip-path:url(#SVGID_00000003065520584707666410000004632067928758553500_);fill:none;stroke:#D6D6D6;stroke-width:5;stroke-miterlimit:10;" x1="88.9" y1="81.4" x2="81.8" y2="100.6"/>
		
			<line id="XMLID_5_" style="clip-path:url(#SVGID_00000003065520584707666410000004632067928758553500_);fill:none;stroke:#D6D6D6;stroke-width:5;stroke-miterlimit:10;" x1="49.2" y1="12" x2="31.3" y2="2.1"/>
		
			<line id="XMLID_6_" style="clip-path:url(#SVGID_00000003065520584707666410000004632067928758553500_);fill:none;stroke:#D6D6D6;stroke-width:5;stroke-miterlimit:10;" x1="46.5" y1="8.8" x2="25" y2="4.9"/>
		
			<line id="XMLID_27_" style="clip-path:url(#SVGID_00000003065520584707666410000004632067928758553500_);fill:none;stroke:#D6D6D6;stroke-width:10;stroke-miterlimit:10;" x1="56.1" y1="14.3" x2="37.4" y2="2.4"/>
		
			<line id="XMLID_29_" style="clip-path:url(#SVGID_00000003065520584707666410000004632067928758553500_);fill:none;stroke:#D6D6D6;stroke-width:10;stroke-miterlimit:10;" x1="89.3" y1="95.3" x2="89.3" y2="65.5"/>
	</g>
</g>
<g id="Layer_8">
	<g>
		<defs>
			<path id="SVGID_00000152233316855602630210000003994295294838262701_" d="M91.7,22.2L57.4,2.1c-4.7-2.8-10.6-2.8-15.3,0L7.8,22.2
				C3,25,0,30.2,0,35.8v40c0,5.6,3,10.9,7.8,13.7l34.3,20.1c4.7,2.8,10.6,2.8,15.3,0l34.3-20.1c4.8-2.8,7.8-8,7.8-13.7v-40
				C99.5,30.2,96.5,25,91.7,22.2z M84.2,71.9c0,2.4-1.3,4.6-3.4,5.8L53,93.7c-2.1,1.2-4.6,1.2-6.7,0l-27.8-16
				c-2.1-1.2-3.4-3.4-3.4-5.8V40.1c0-2.4,1.3-4.6,3.4-5.8l27.8-16c2.1-1.2,4.6-1.2,6.7,0l27.8,16c2.1,1.2,3.4,3.4,3.4,5.8V71.9z"/>
		</defs>
		<clipPath id="SVGID_00000011022962945478535730000002948833139166745245_">
			<use xlink:href="#SVGID_00000152233316855602630210000003994295294838262701_"  style="overflow:visible;"/>
		</clipPath>
		
			<path id="XMLID_00000137835608792030726450000016332991834652598971_" style="clip-path:url(#SVGID_00000011022962945478535730000002948833139166745245_);fill:#FFFFFF;stroke:#02A8C5;stroke-width:18;stroke-miterlimit:10;" d="
			M14.1,26.4l27.8-16c4.8-2.8,10.8-2.8,15.7,0l27.8,16c4.9,2.8,7.9,8,7.9,13.6v31.8c0,5.6-3,10.8-7.9,13.6l-27.8,16
			c-4.8,2.8-10.8,2.8-15.7,0l-27.8-16c-4.9-2.8-7.9-8-7.9-13.6V40.1C6.2,34.4,9.2,29.2,14.1,26.4z"/>
		
			<path id="XMLID_00000045614813502566290970000006768639960625090446_" style="clip-path:url(#SVGID_00000011022962945478535730000002948833139166745245_);fill:none;stroke:#02A8C5;stroke-width:18;stroke-miterlimit:10;" d="
			M41.9,10.4c4.8-2.8,10.8-2.8,15.7,0l27.8,16c4.9,2.8,7.9,8,7.9,13.6v31.8c0,5.6-3,10.8-7.9,13.6"/>
		
			<line id="XMLID_00000031165952335495271660000002157598051005327237_" style="clip-path:url(#SVGID_00000011022962945478535730000002948833139166745245_);fill:none;stroke:#02A8C5;stroke-width:5;stroke-miterlimit:10;" x1="81.6" y1="88.6" x2="81.6" y2="70.4"/>
		
			<line id="XMLID_00000126316977740355371380000008092917077972234925_" style="clip-path:url(#SVGID_00000011022962945478535730000002948833139166745245_);fill:none;stroke:#02A8C5;stroke-width:5;stroke-miterlimit:10;" x1="54.7" y1="21.9" x2="41.2" y2="14.5"/>
		
			<linearGradient id="XMLID_00000143586882839905363460000004153923456154893721_" gradientUnits="userSpaceOnUse" x1="74.3356" y1="8.5708" x2="74.3356" y2="-15.497" gradientTransform="matrix(0.6288 0.9747 -1.2208 0.7875 22.1065 18.9174)">
			<stop  offset="0.2092" style="stop-color:#656565;stop-opacity:0"/>
			<stop  offset="1" style="stop-color:#000000"/>
		</linearGradient>
		
			<polygon id="XMLID_00000132801578308027923520000010500962529421339274_" style="opacity:0.5;clip-path:url(#SVGID_00000011022962945478535730000002948833139166745245_);fill:url(#XMLID_00000143586882839905363460000004153923456154893721_);" points="
			79.9,66.9 95.7,91.4 66.3,110.3 50.5,85.9 		"/>
		
			<path id="XMLID_00000132090068935026346330000007980500515442859658_" style="clip-path:url(#SVGID_00000011022962945478535730000002948833139166745245_);fill:none;stroke:#02A8C5;stroke-miterlimit:10;" d="
			M84.4,37.9l0.2,46.8c0,6-6.2,15.7-6.1,15.7"/>
		
			<linearGradient id="XMLID_00000111157842199532953530000016538817311688210309_" gradientUnits="userSpaceOnUse" x1="39.6231" y1="25.8646" x2="39.6231" y2="1.7967" gradientTransform="matrix(0.6921 1.211 -1.4712 0.8408 25.7908 -33.0676)">
			<stop  offset="0.2092" style="stop-color:#656565;stop-opacity:0"/>
			<stop  offset="1" style="stop-color:#000000"/>
		</linearGradient>
		
			<polygon id="XMLID_00000097490236952248220570000001184393055965135013_" style="opacity:0.5;clip-path:url(#SVGID_00000011022962945478535730000002948833139166745245_);fill:url(#XMLID_00000111157842199532953530000016538817311688210309_);" points="
			41.9,1.2 59.3,31.6 23.8,51.9 6.5,21.5 		"/>
		
			<path id="XMLID_00000037662549306607667050000009448394921339420832_" style="clip-path:url(#SVGID_00000011022962945478535730000002948833139166745245_);fill:none;stroke:#02A8C5;stroke-miterlimit:10;" d="
			M77,31.3L40.7,10.7c-4.7-2.7-15-2.1-14.9-2.1"/>
		
			<line id="XMLID_00000020399223919353028480000005473856279488888503_" style="clip-path:url(#SVGID_00000011022962945478535730000002948833139166745245_);fill:none;stroke:#02A8C5;stroke-width:5;stroke-miterlimit:10;" x1="87.2" y1="77.7" x2="87.4" y2="98.1"/>
		
			<line id="XMLID_00000003790450319994949760000006548820802932920729_" style="clip-path:url(#SVGID_00000011022962945478535730000002948833139166745245_);fill:none;stroke:#02A8C5;stroke-width:5;stroke-miterlimit:10;" x1="88.9" y1="81.4" x2="81.8" y2="100.6"/>
		
			<line id="XMLID_00000037691365246530239340000014183746975440133809_" style="clip-path:url(#SVGID_00000011022962945478535730000002948833139166745245_);fill:none;stroke:#02A8C5;stroke-width:5;stroke-miterlimit:10;" x1="49.2" y1="12" x2="31.3" y2="2.1"/>
		
			<line id="XMLID_00000005267111410276573930000003185452676957855412_" style="clip-path:url(#SVGID_00000011022962945478535730000002948833139166745245_);fill:none;stroke:#02A8C5;stroke-width:5;stroke-miterlimit:10;" x1="46.5" y1="8.8" x2="25" y2="4.9"/>
		
			<line id="XMLID_00000100350019837508648510000015317330034969776319_" style="clip-path:url(#SVGID_00000011022962945478535730000002948833139166745245_);fill:none;stroke:#02A8C5;stroke-width:10;stroke-miterlimit:10;" x1="56.1" y1="14.3" x2="37.4" y2="2.4"/>
		
			<line id="XMLID_00000147921275629402134710000009193312210295450755_" style="clip-path:url(#SVGID_00000011022962945478535730000002948833139166745245_);fill:none;stroke:#02A8C5;stroke-width:10;stroke-miterlimit:10;" x1="89.3" y1="95.3" x2="89.3" y2="65.5"/>
	</g>
</g>
</svg>
