<?xml version="1.0" encoding="UTF-8" standalone="no"?>
<svg
   xmlns:dc="http://purl.org/dc/elements/1.1/"
   xmlns:cc="http://creativecommons.org/ns#"
   xmlns:rdf="http://www.w3.org/1999/02/22-rdf-syntax-ns#"
   xmlns:svg="http://www.w3.org/2000/svg"
   xmlns="http://www.w3.org/2000/svg"
   xmlns:sodipodi="http://sodipodi.sourceforge.net/DTD/sodipodi-0.dtd"
   xmlns:inkscape="http://www.inkscape.org/namespaces/inkscape"
   version="1.1"
   id="svg2"
   xml:space="preserve"
   width="32.32"
   height="31.933332"
   viewBox="0 0 32.32 31.933332"
   sodipodi:docname="linkedin.eps"><metadata
     id="metadata8"><rdf:RDF><cc:Work
         rdf:about=""><dc:format>image/svg+xml</dc:format><dc:type
           rdf:resource="http://purl.org/dc/dcmitype/StillImage" /></cc:Work></rdf:RDF></metadata><defs
     id="defs6" /><sodipodi:namedview
     pagecolor="#ffffff"
     bordercolor="#666666"
     borderopacity="1"
     objecttolerance="10"
     gridtolerance="10"
     guidetolerance="10"
     inkscape:pageopacity="0"
     inkscape:pageshadow="2"
     inkscape:window-width="640"
     inkscape:window-height="480"
     id="namedview4" /><g
     id="g10"
     inkscape:groupmode="layer"
     inkscape:label="ink_ext_XXXXXX"
     transform="matrix(1.3333333,0,0,-1.3333333,0,31.933333)"><g
       id="g12"
       transform="scale(0.1)"><path
         d="M 221.82,239.547 H 17.6797 C 7.92969,239.547 0,231.816 0,222.285 V 17.2852 C 0,7.74609 7.92969,0.00390625 17.6797,0.00390625 H 221.82 c 9.77,0 17.731,7.74218375 17.731,17.28129375 V 222.285 c 0,9.531 -7.961,17.262 -17.731,17.262"
         style="fill:#b6206f;fill-opacity:1;fill-rule:nonzero;stroke:none"
         id="path14" /><path
         d="m 53.2891,206.566 c 11.3593,0 20.5898,-9.23 20.5898,-20.589 0,-11.383 -9.2305,-20.614 -20.5898,-20.614 -11.3907,0 -20.6016,9.231 -20.6016,20.614 0,11.359 9.2109,20.589 20.6016,20.589 M 35.5195,149.746 H 71.0508 V 35.4258 H 35.5195 V 149.746"
         style="fill:#ffffff;fill-opacity:1;fill-rule:nonzero;stroke:none"
         id="path16" /><path
         d="m 93.332,149.738 h 34.082 v -15.617 h 0.469 c 4.738,8.988 16.34,18.457 33.621,18.457 35.98,0 42.617,-23.68 42.617,-54.4491 v -62.707 h -35.5 v 55.5976 c 0,13.2505 -0.25,30.3005 -18.469,30.3005 -18.48,0 -21.32,-14.441 -21.32,-29.3512 V 35.4219 h -35.5 V 149.738"
         style="fill:#ffffff;fill-opacity:1;fill-rule:nonzero;stroke:none"
         id="path18" /></g></g></svg>
