<?xml version="1.0" encoding="UTF-8" standalone="no"?>
<svg
   xmlns:dc="http://purl.org/dc/elements/1.1/"
   xmlns:cc="http://creativecommons.org/ns#"
   xmlns:rdf="http://www.w3.org/1999/02/22-rdf-syntax-ns#"
   xmlns:svg="http://www.w3.org/2000/svg"
   xmlns="http://www.w3.org/2000/svg"
   xmlns:sodipodi="http://sodipodi.sourceforge.net/DTD/sodipodi-0.dtd"
   xmlns:inkscape="http://www.inkscape.org/namespaces/inkscape"
   version="1.1"
   id="svg2"
   xml:space="preserve"
   width="369.23999"
   height="347.42667"
   viewBox="0 0 369.23999 347.42667"
   sodipodi:docname="skills.eps"><metadata
     id="metadata8"><rdf:RDF><cc:Work
         rdf:about=""><dc:format>image/svg+xml</dc:format><dc:type
           rdf:resource="http://purl.org/dc/dcmitype/StillImage" /></cc:Work></rdf:RDF></metadata><defs
     id="defs6" /><sodipodi:namedview
     pagecolor="#ffffff"
     bordercolor="#666666"
     borderopacity="1"
     objecttolerance="10"
     gridtolerance="10"
     guidetolerance="10"
     inkscape:pageopacity="0"
     inkscape:pageshadow="2"
     inkscape:window-width="640"
     inkscape:window-height="480"
     id="namedview4" /><g
     id="g10"
     inkscape:groupmode="layer"
     inkscape:label="ink_ext_XXXXXX"
     transform="matrix(1.3333333,0,0,-1.3333333,0,347.42667)"><g
       id="g12"
       transform="scale(0.1)"><path
         d="m 392.699,1815.67 c -20.789,0 -41.371,9.53 -54.687,27.54 -22.352,30.19 -15.981,72.77 14.179,95.11 l 375.039,277.7 c 30.192,22.34 72.77,15.98 95.11,-14.18 22.351,-30.2 16.019,-72.77 -14.18,-95.12 L 433.121,1829.03 c -12.18,-8.99 -26.359,-13.36 -40.422,-13.36 v 0"
         style="fill:#b6206f;fill-opacity:1;fill-rule:nonzero;stroke:none"
         id="path14" /><path
         d="m 429.77,1458.79 c -21.329,0 -42.309,10 -55.551,28.71 -21.719,30.67 -14.449,73.09 16.172,94.81 l 803.589,569.14 c 30.67,21.72 73.09,14.45 94.81,-16.17 21.68,-30.67 14.45,-73.09 -16.17,-94.81 l -803.6,-569.14 c -11.95,-8.47 -25.661,-12.54 -39.25,-12.54 v 0"
         style="fill:#b6206f;fill-opacity:1;fill-rule:nonzero;stroke:none"
         id="path16" /><path
         d="m 2601.72,977.66 c 0,-62.621 -51.21,-113.832 -113.83,-113.832 H 281.41 c -62.621,0 -113.832,51.211 -113.832,113.832 v 1325.98 c 0,62.61 51.211,113.82 113.832,113.82 h 2206.48 c 62.62,0 113.83,-51.21 113.83,-113.82 z M 1384.65,545.391 c -61.88,0 -112.03,50.16 -112.03,112 0,61.871 50.15,112.031 112.03,112.031 61.87,0 112.03,-50.16 112.03,-112.031 0,-61.84 -50.16,-112 -112.03,-112 z M 1502.38,388.48 V 212.66 c 0,-9.18 -4.65,-19.961 -18.67,-19.961 h -198.48 c -17.5,0 -18.28,9.223 -18.28,23.789 V 387 c 0,25 29.77,25.891 29.77,25.891 h 180.51 c 0,0 25.15,1.609 25.15,-24.411 z M 2655.47,2605.67 H 113.828 C 51.2109,2605.67 0,2554.42 0,2491.8 V 533.32 C 0,470.711 51.2109,419.5 113.828,419.5 h 927.892 c 0,0 33.24,1.988 33.24,-30.512 V 218.48 c 0,-16.128 -1.25,-26.441 -20.23,-26.441 H 812.969 c -53.008,0 -95.981,-43.008 -95.981,-96.0195 C 716.988,43.0117 759.961,0 812.969,0 H 1956.33 c 53.01,0 96.01,43.0117 96.01,96.0195 0,53.0115 -43,96.0195 -96.01,96.0195 h -243.95 c -13.98,0 -18,8.512 -18,18.281 V 394.5 c 0,25.5 23.86,25 23.86,25 h 937.23 c 62.62,0 113.83,51.211 113.83,113.82 V 2491.8 c 0,62.62 -51.21,113.87 -113.83,113.87 v 0"
         style="fill:#b6206f;fill-opacity:1;fill-rule:nonzero;stroke:none"
         id="path18" /></g></g></svg>
